<svg width="512" height="512" viewBox="0 0 512 512" xmlns="http://www.w3.org/2000/svg" style="background: #0a0a0a; border: none; border-radius: 999px;">
  <g id="svgGroup" stroke-linecap="round" fill-rule="evenodd" fill="#ffe7b3">
    <path d="m379.7 193.2h-72.8q-1.5-16.6-13.1-26a37.7 37.7 0 0 0-.4-.4q-11.9-9.3-33.8-9.4a104.2 104.2 0 0 0-.5 0 110.5 110.5 0 0 0-1.4 0q-13.8.2-23.1 3.8a41.5 41.5 0 0 0-.1 0 48.8 48.8 0 0 0-1.1.4q-8.6 3.6-13.3 9.5a24.5 24.5 0 0 0-.4.6 27.1 27.1 0 0 0-.9 1.3q-3.9 6-4.2 13.4a30.5 30.5 0 0 0 0 .6q-.3 5.9 1.9 10.7a20.1 20.1 0 0 0 .9 1.8 24.8 24.8 0 0 0 1.1 1.6q2.8 4 7.3 7.2a38.4 38.4 0 0 0 .9.6q6.1 4.1 14.7 7.1 8.1 2.9 18.1 5.1a198 198 0 0 0 1.3.3l27 6.1q23.3 5.1 41.2 13.5a144.2 144.2 0 0 1 1.9.9q15.8 7.8 27 18.1a91.8 91.8 0 0 1 1.1 1 84.8 84.8 0 0 1 1.9 1.8q10.3 10.5 16.1 23.8a79.1 79.1 0 0 1 .5 1.2 77.1 77.1 0 0 1 1.1 2.9q5.2 14.1 5.3 31.2-.2 29.8-15 51.1a82.7 82.7 0 0 1-6.5 8.2q-13.4 14.8-34.5 23.8a126.5 126.5 0 0 1-1.7.7 123.2 123.2 0 0 1-1.8.7q-27.3 10.7-65.4 10.7a260.1 260.1 0 0 1-2.5 0q-36.1-.3-63.5-10.7a137 137 0 0 1-2.8-1.1q-29.3-11.8-45.6-35.9a84.2 84.2 0 0 1-2.2-3.5q-13.9-23-14.5-56.8a169.2 169.2 0 0 1 0-.7h72.7a68.9 68.9 0 0 0 .1 1.4q1.2 14.3 8 23.9 7.2 10.1 19.9 15.3 12.7 5.2 29.4 5.2a111.3 111.3 0 0 0 1.4 0q13.5-.2 23.4-3.6a50 50 0 0 0 1.4-.5q10.4-4 16.2-11a30 30 0 0 0 .4-.5q5.8-7.4 6-16.8a31.9 31.9 0 0 0 0 0 29.4 29.4 0 0 0 0-1.1q-.4-8.2-5.5-14.2-5.4-6.4-16.5-11.1a99.6 99.6 0 0 0-.7-.3q-10.6-4.4-26.4-8.1a299.5 299.5 0 0 0-1.2-.3l-32.8-7.7a228 228 0 0 1-2.2-.5q-37.7-9-60.2-28.2a99.1 99.1 0 0 1-1.8-1.6q-23.5-20.9-23.3-56.7a115.9 115.9 0 0 1 0-.1q-.2-29 15.5-50.9a85.2 85.2 0 0 1 .1-.2q15.7-21.8 43.4-34.1a135.1 135.1 0 0 1 .3-.1 130.3 130.3 0 0 1 3.5-1.5q26.6-10.8 60.2-10.8a213.4 213.4 0 0 1 2.3 0q35.1.4 61.2 12.3a123.9 123.9 0 0 1 1.7.8q24.8 11.8 39.1 32.3a92.1 92.1 0 0 1 1 1.5 88.6 88.6 0 0 1 2.2 3.5q12.6 20.9 13 47.7a117.1 117.1 0 0 1 0 .3z" vector-effect="non-scaling-stroke"/>
  </g>
</svg>